HIERARCHY
ROOT Hips
{
 OFFSET 0.000000 0.000000 0.000000
 CHANNELS 6 Xposition Yposition Zposition Yrotation Xrotation Zrotation
 JOINT Chest
 {
  OFFSET 0.000000 9.581000 -0.001100
  CHANNELS 3 Yrotation Xrotation Zrotation
  JOINT Chest2
  {
   OFFSET 0.000000 9.561100 0.002200
   CHANNELS 3 Yrotation Xrotation Zrotation
   JOINT Chest3
   {
    OFFSET 0.000000 9.521100 0.000000
    CHANNELS 3 Yrotation Xrotation Zrotation
    JOINT Chest4
    {
     OFFSET 0.000000 9.511400 0.000000
     CHANNELS 3 Yrotation Xrotation Zrotation
     JOINT Neck
     {
      OFFSET 0.000000 14.375100 0.000000
      CHANNELS 3 Yrotation Xrotation Zrotation
      JOINT Head
      {
       OFFSET 0.000000 8.901200 0.004600
       CHANNELS 3 Yrotation Xrotation Zrotation
       End Site
       {
        OFFSET 0.000000 16.962200 0.002400
       }
      }
     }
     JOINT RightCollar
     {
      OFFSET -2.920100 9.518800 0.000000
      CHANNELS 3 Yrotation Xrotation Zrotation
      JOINT RightShoulder
      {
       OFFSET -13.664500 0.000000 0.000000
       CHANNELS 3 Yrotation Xrotation Zrotation
       JOINT RightElbow
       {
        OFFSET 0.000000 -29.999200 0.000000
        CHANNELS 3 Yrotation Xrotation Zrotation
        JOINT RightWrist
        {
         OFFSET 0.000000 -24.253600 0.000000
         CHANNELS 3 Yrotation Xrotation Zrotation
         End Site
         {
          OFFSET 0.000000 -17.918900 0.000000
         }
        }
       }
      }
     }
     JOINT LeftCollar
     {
      OFFSET 2.920100 9.518800 0.000000
      CHANNELS 3 Yrotation Xrotation Zrotation
      JOINT LeftShoulder
      {
       OFFSET 13.664500 0.000000 0.000000
       CHANNELS 3 Yrotation Xrotation Zrotation
       JOINT LeftElbow
       {
        OFFSET 0.000000 -29.999200 0.000000
        CHANNELS 3 Yrotation Xrotation Zrotation
        JOINT LeftWrist
        {
         OFFSET 0.000000 -24.253600 0.000000
         CHANNELS 3 Yrotation Xrotation Zrotation
         End Site
         {
          OFFSET 0.000000 -17.918900 0.000000
         }
        }
       }
      }
     }
    }
   }
  }
 }
 JOINT RightHip
 {
  OFFSET -7.797300 0.005300 0.000500
  CHANNELS 3 Yrotation Xrotation Zrotation
  JOINT RightKnee
  {
   OFFSET 0.000000 -40.663400 -0.000500
   CHANNELS 3 Yrotation Xrotation Zrotation
   JOINT RightAnkle
   {
    OFFSET 0.000000 -39.523700 -0.000900
    CHANNELS 3 Yrotation Xrotation Zrotation
    JOINT RightToe
    {
     OFFSET 0.000000 -6.418000 14.485300
     CHANNELS 3 Yrotation Xrotation Zrotation
     End Site
     {
      OFFSET 0.000000 -1.465200 6.326400
     }
    }
   }
  }
 }
 JOINT LeftHip
 {
  OFFSET 7.797300 0.005300 0.000500
  CHANNELS 3 Yrotation Xrotation Zrotation
  JOINT LeftKnee
  {
   OFFSET 0.000000 -40.663400 -0.000500
   CHANNELS 3 Yrotation Xrotation Zrotation
   JOINT LeftAnkle
   {
    OFFSET 0.000000 -39.523700 -0.000900
    CHANNELS 3 Yrotation Xrotation Zrotation
    JOINT LeftToe
    {
     OFFSET 0.000000 -6.418000 14.485300
     CHANNELS 3 Yrotation Xrotation Zrotation
     End Site
     {
      OFFSET 0.000000 -1.465200 6.326400
     }
    }
   }
  }
 }
}
MOTION
Frames: 13
Frame Time: 0.008333
-13.401373 126.910716 32.623181 -160.871900 -48.399361 -2.677534 -3.383749 24.831940 -1.665358 -0.476310 3.930236 -0.160618 -0.776313 6.295665 -0.260644 -2.734089 20.597650 -1.232584 -0.779801 15.354415 0.384691 -0.900797 -9.648554 0.568566 0.556889 1.985958 1.020308 4.031496 -3.986334 -7.827576 -76.609220 -62.723635 127.660593 3.406134 14.850695 -15.318211 -8.345915 -1.793544 0.477910 -5.619709 0.839749 9.441744 56.559817 -56.312542 -101.175594 1.041284 -6.391373 16.264030 -6.533409 -24.656890 -10.915396 -10.820588 78.724492 -12.043445 10.251334 -15.569620 3.542990 -0.004323 -0.001893 -0.001915 4.399855 4.902225 -2.027139 128.629663 65.261035 146.918606 10.940029 9.516184 2.912460 0.004205 0.018827 0.001864
-13.401200 126.910418 32.624324 -160.872545 -48.399452 -2.678403 -3.397100 24.836811 -1.652188 -0.478465 3.933100 -0.158009 -0.772318 6.293487 -0.269303 -2.744224 20.612107 -1.205885 -0.791751 15.274951 0.315469 -0.894101 -9.709675 0.506258 0.578867 1.989990 1.009492 4.025709 -4.007938 -7.803379 -76.573952 -62.755046 127.625755 3.392253 14.856500 -15.302492 -8.338856 -1.776262 0.472069 -5.568666 0.862003 9.413468 56.622103 -56.351966 -101.272758 1.030897 -6.360827 16.233877 -6.531460 -24.654595 -10.913718 -10.809920 78.724174 -12.036641 10.259869 -15.565315 3.544608 -0.001546 -0.002179 -0.000685 4.397983 4.899091 -2.032759 128.629552 65.254506 146.916339 10.931249 9.510096 2.935031 0.004314 0.016191 0.001912
-13.401522 126.909406 32.626372 -160.872585 -48.395130 -2.674543 -3.414539 24.838599 -1.644791 -0.480479 3.935731 -0.155540 -0.786210 6.314783 -0.239624 -2.743632 20.589669 -1.241320 -0.796712 15.239632 0.282544 -0.890768 -9.809526 0.429536 0.593228 1.997819 1.013734 4.023108 -4.024085 -7.797576 -76.520625 -62.712683 127.582980 3.421753 14.877458 -15.295255 -8.336849 -1.752309 0.491813 -5.520403 0.893979 9.377776 56.671646 -56.387114 -101.295113 1.013160 -6.300543 16.151032 -6.529979 -24.660256 -10.918011 -10.800179 78.726021 -12.029315 10.260728 -15.556941 3.546888 -0.000259 -0.001536 -0.000115 4.395964 4.892538 -2.042684 128.630672 65.246709 146.902781 10.889721 9.450319 3.086047 0.002495 -0.001994 0.001106
-13.400626 126.909482 32.627233 -160.870369 -48.399525 -2.680877 -3.426281 24.851258 -1.629639 -0.482350 3.939022 -0.152634 -0.784200 6.319916 -0.229529 -2.750668 20.604316 -1.213990 -0.814297 15.145935 0.195302 -0.888947 -9.877029 0.363914 0.597246 1.971590 0.962442 4.024673 -4.028798 -7.789369 -76.475061 -62.652457 127.549027 3.450502 14.899805 -15.286240 -8.334627 -1.756515 0.476582 -5.486845 0.911087 9.341620 56.697715 -56.418200 -101.278105 1.001960 -6.255894 16.064835 -6.535433 -24.650689 -10.911960 -10.803147 78.722973 -12.036953 10.268154 -15.558585 3.548741 0.000307 -0.000673 0.000136 4.394325 4.893663 -2.042976 128.635526 65.243544 146.902036 10.858683 9.410893 3.193411 0.004243 -0.018572 0.001879
-13.399682 126.909997 32.627755 -160.877422 -48.408398 -2.680176 -3.425645 24.866574 -1.605879 -0.483934 3.943452 -0.149172 -0.784772 6.316682 -0.239811 -2.751936 20.629841 -1.166685 -0.834241 15.048491 0.103495 -0.889618 -9.947416 0.295152 0.608639 1.966315 0.939055 4.019437 -4.052720 -7.813020 -76.458873 -62.639431 127.531788 3.432675 14.906297 -15.267733 -8.328245 -1.741470 0.495579 -5.461344 0.901038 9.269400 56.725896 -56.450251 -101.259190 0.999037 -6.213689 15.970794 -6.537067 -24.638656 -10.906333 -10.801249 78.716379 -12.039570 10.272619 -15.557302 3.548973 -0.000097 -0.000808 -0.000043 4.399752 4.894745 -2.041963 128.655073 65.239017 146.917841 10.890621 9.446034 3.124391 0.001336 -0.006851 0.000592
-13.397910 126.911478 32.627206 -160.894291 -48.425450 -2.677690 -3.426073 24.895743 -1.554693 -0.486071 3.948370 -0.149598 -0.780766 6.305808 -0.273058 -2.751153 20.650916 -1.130400 -0.851679 14.992546 0.038778 -0.886861 -10.059934 0.206814 0.632797 1.984007 0.966002 4.014003 -4.076949 -7.823800 -76.423792 -62.633718 127.495739 3.452825 14.931610 -15.257454 -8.333275 -1.737013 0.493958 -5.423055 0.910546 9.227130 56.719462 -56.462789 -101.143037 0.985503 -6.176725 15.800297 -6.535531 -24.617162 -10.893454 -10.789503 78.712353 -12.030805 10.267141 -15.561361 3.547222 0.000234 -0.000429 0.000104 4.413000 4.901948 -2.031877 128.666184 65.237105 146.932155 10.978756 9.560647 2.871621 -0.005653 0.031307 -0.002506
-13.397480 126.911944 32.627967 -160.901198 -48.434665 -2.671109 -3.428644 24.914319 -1.534344 -0.483661 3.941364 -0.167377 -0.785893 6.322143 -0.245184 -2.751667 20.662671 -1.111766 -0.870856 14.893269 -0.047198 -0.889593 -10.136887 0.133445 0.639929 1.977689 0.962235 4.012387 -4.085988 -7.840722 -76.399102 -62.605302 127.475206 3.453342 14.952659 -15.247124 -8.346046 -1.721332 0.504270 -5.375712 0.904442 9.175992 56.727586 -56.476116 -101.083458 0.975212 -6.126105 15.669445 -6.528893 -24.604965 -10.894138 -10.821687 78.707543 -12.063304 10.266139 -15.568803 3.550138 -0.000028 -0.000461 -0.000013 4.417817 4.906581 -2.036506 128.668472 65.238091 146.937602 10.986579 9.576663 2.846175 -0.004318 0.035499 -0.001914
-13.396843 126.910742 32.630170 -160.899445 -48.430253 -2.667791 -3.436996 24.917874 -1.521971 -0.485450 3.947482 -0.159162 -0.790187 6.353484 -0.202069 -2.762440 20.649378 -1.126928 -0.891538 14.789524 -0.136958 -0.894056 -10.217568 0.058350 0.632977 1.948098 0.919613 4.020383 -4.073540 -7.819139 -76.414822 -62.626203 127.482241 3.437565 14.958468 -15.238927 -8.360763 -1.718838 0.502889 -5.347444 0.881425 9.134592 56.725307 -56.476143 -101.007894 0.967242 -6.066368 15.559187 -6.526671 -24.610030 -10.897944 -10.844632 78.706569 -12.083898 10.258445 -15.574387 3.550817 -0.000878 -0.000930 -0.000389 4.415658 4.898116 -2.049303 128.660357 65.236786 146.928223 10.934875 9.516230 3.010022 -0.001663 0.012301 -0.000737
-13.395442 126.910973 32.630802 -160.907825 -48.436762 -2.662596 -3.432557 24.927030 -1.515289 -0.489571 3.961414 -0.135016 -0.790307 6.360388 -0.195831 -2.763760 20.659891 -1.106716 -0.913673 14.696795 -0.221258 -0.897807 -10.313851 -0.024077 0.647888 1.960072 0.962589 4.011098 -4.093741 -7.882238 -76.316702 -62.537956 127.409370 3.539154 14.992458 -15.245374 -8.376418 -1.717223 0.501248 -5.318251 0.859188 9.095159 56.725448 -56.474729 -100.930011 0.959947 -6.039585 15.446877 -6.520137 -24.604433 -10.896280 -10.859172 78.706244 -12.096440 10.251684 -15.575830 3.550540 -0.001696 -0.001100 -0.000751 4.412936 4.900557 -2.056854 128.658087 65.234563 146.927136 10.906177 9.491143 3.074276 0.003026 0.003447 0.001341
-13.394794 126.910722 32.631989 -160.915860 -48.439073 -2.650415 -3.433535 24.939025 -1.496798 -0.490972 3.966868 -0.131469 -0.793441 6.365614 -0.188737 -2.764948 20.668907 -1.087889 -0.936263 14.604902 -0.305548 -0.901988 -10.408979 -0.106338 0.647857 1.948391 0.951724 4.012030 -4.089766 -7.885662 -76.244503 -62.492546 127.351129 3.511645 15.016756 -15.206002 -8.388404 -1.734636 0.475927 -5.223669 0.934368 9.091223 56.783351 -56.508050 -100.986278 0.953043 -5.963775 15.327418 -6.511650 -24.603317 -10.904363 -10.858484 78.705567 -12.095919 10.259906 -15.584819 3.548717 -0.000683 -0.001137 -0.000303 4.412967 4.901829 -2.065472 128.645788 65.233264 146.904545 10.879061 9.451793 3.163508 0.000540 -0.003438 0.000239
-13.394254 126.910364 32.633184 -160.927671 -48.439831 -2.632879 -3.443829 24.957584 -1.454541 -0.489893 3.968994 -0.140983 -0.795460 6.361930 -0.199823 -2.767330 20.676905 -1.071197 -0.957803 14.514095 -0.389350 -0.905208 -10.502722 -0.188302 0.645777 1.935242 0.926785 4.018016 -4.083096 -7.873541 -76.225884 -62.501576 127.330739 3.456763 15.028730 -15.163804 -8.402721 -1.715959 0.487968 -5.141796 0.951300 9.051380 56.817098 -56.531792 -100.996751 0.948251 -5.889157 15.201720 -6.502149 -24.602534 -10.914180 -10.853526 78.703899 -12.086836 10.250090 -15.610127 3.540797 -0.001496 -0.004888 -0.000663 4.418354 4.903019 -2.072973 128.642946 65.232916 146.893919 10.854691 9.409622 3.239727 -0.000145 -0.007775 -0.000064
-13.393646 126.910306 32.633927 -160.936408 -48.441825 -2.617185 -3.448488 24.964052 -1.444743 -0.488661 3.968966 -0.148071 -0.800397 6.372889 -0.177196 -2.771768 20.683848 -1.055948 -0.977901 14.423886 -0.473677 -0.906902 -10.595636 -0.271134 0.659746 1.935606 0.921428 4.012842 -4.086956 -7.886029 -76.119049 -62.456227 127.243553 3.481473 15.039473 -15.147667 -8.415225 -1.695994 0.498888 -5.065183 0.956315 9.008134 56.828301 -56.554216 -100.966229 0.948594 -5.870122 15.069796 -6.498485 -24.603336 -10.919844 -10.855325 78.705731 -12.093979 10.245373 -15.623469 3.536962 -0.001376 -0.005459 -0.000609 4.423286 4.905933 -2.080860 128.633337 65.232378 146.880915 10.832211 9.377857 3.299941 0.000409 -0.012372 0.000181
-13.392845 126.910051 32.634607 -160.941288 -48.440896 -2.604254 -3.451833 24.964213 -1.448030 -0.494469 3.978282 -0.121833 -0.804233 6.377250 -0.172670 -2.778282 20.689569 -1.041072 -0.995014 14.366880 -0.545280 -0.906027 -10.720820 -0.368885 0.672769 1.939226 0.915861 4.012406 -4.093539 -7.904339 -76.014766 -62.418811 127.163463 3.514848 15.042149 -15.149554 -8.422781 -1.685401 0.495733 -4.985620 0.974061 8.976619 56.829673 -56.579669 -100.913213 0.952894 -5.804282 14.892538 -6.497689 -24.607718 -10.924576 -10.863272 78.707795 -12.108310 10.242641 -15.629578 3.535660 -0.001449 -0.004830 -0.000642 4.425731 4.906514 -2.088793 128.621520 65.229919 146.867370 10.809585 9.349230 3.351754 0.002020 -0.017939 0.000895
